HIERARCHY
ROOT Root
{
  OFFSET 0.0 0.0 0.0
  CHANNELS 6 Xposition Yposition Zposition Zrotation Yrotation Xrotation
  JOINT Hips
  {
    OFFSET 0.0 100.0 0.0
    CHANNELS 6 Xposition Yposition Zposition Zrotation Yrotation Xrotation
    JOINT Spine1
    {
      OFFSET 5.003913 -0.037094 -0.013727
      CHANNELS 3 Zrotation Yrotation Xrotation
      JOINT Spine2
      {
        OFFSET 7.125363 -1e-06 0.0
        CHANNELS 3 Zrotation Yrotation Xrotation
        JOINT Chest
        {
          OFFSET 7.594027 1e-06 0.0
          CHANNELS 3 Zrotation Yrotation Xrotation
          JOINT Neck1
          {
            OFFSET 26.313086 -0.460272 -0.181672
            CHANNELS 3 Zrotation Yrotation Xrotation
            JOINT Neck2
            {
              OFFSET 8.045911 0.0 0.0
              CHANNELS 3 Zrotation Yrotation Xrotation
              JOINT Head
              {
                OFFSET 6.432774 0.0 0.0
                CHANNELS 3 Zrotation Yrotation Xrotation
                JOINT HeadEnd
                {
                  OFFSET 16.169773 0.06451 0.00362
                  CHANNELS 3 Zrotation Yrotation Xrotation
                }
                JOINT Jaw
                {
                  OFFSET 0.108741 3.12938 0.002639
                  CHANNELS 3 Zrotation Yrotation Xrotation
                }
                JOINT LeftEye
                {
                  OFFSET 4.45173 8.166359 3.206392
                  CHANNELS 3 Zrotation Yrotation Xrotation
                }
                JOINT RightEye
                {
                  OFFSET 4.436895 8.135758 -3.222429
                  CHANNELS 3 Zrotation Yrotation Xrotation
                }
              }
            }
          }
          JOINT LeftShoulder
          {
            OFFSET 23.218927 5.195579 1.621656
            CHANNELS 3 Zrotation Yrotation Xrotation
            JOINT LeftArm
            {
              OFFSET 15.902118 2e-06 -2e-06
              CHANNELS 3 Zrotation Yrotation Xrotation
              JOINT LeftForeArm
              {
                OFFSET 28.739307 0.0 -1e-06
                CHANNELS 3 Zrotation Yrotation Xrotation
                JOINT LeftHand
                {
                  OFFSET 27.093981 -4e-06 0.0
                  CHANNELS 3 Zrotation Yrotation Xrotation
                  JOINT LeftHandThumb1
                  {
                    OFFSET 2.276781 3.380274 0.83384
                    CHANNELS 3 Zrotation Yrotation Xrotation
                    JOINT LeftHandThumb2
                    {
                      OFFSET 4.705309 -1e-06 -1e-06
                      CHANNELS 3 Zrotation Yrotation Xrotation
                      JOINT LeftHandThumb3
                      {
                        OFFSET 2.798515 0.0 3e-06
                        CHANNELS 3 Zrotation Yrotation Xrotation
                        JOINT LeftHandThumbEnd
                        {
                          OFFSET 3.180793 4e-06 -4e-06
                          CHANNELS 3 Zrotation Yrotation Xrotation
                        }
                      }
                    }
                  }
                  JOINT LeftHandIndex1
                  {
                    OFFSET 3.247786 2.352677 0.137192
                    CHANNELS 3 Zrotation Yrotation Xrotation
                    JOINT LeftHandIndex2
                    {
                      OFFSET 6.367095 1e-06 0.0
                      CHANNELS 3 Zrotation Yrotation Xrotation
                      JOINT LeftHandIndex3
                      {
                        OFFSET 3.662364 0.0 0.0
                        CHANNELS 3 Zrotation Yrotation Xrotation
                        JOINT LeftHandIndex4
                        {
                          OFFSET 2.329242 4e-06 -4e-06
                          CHANNELS 3 Zrotation Yrotation Xrotation
                          JOINT LeftHandIndexEnd
                          {
                            OFFSET 2.767823 1e-06 0.0
                            CHANNELS 3 Zrotation Yrotation Xrotation
                          }
                        }
                      }
                    }
                  }
                  JOINT LeftHandMiddle1
                  {
                    OFFSET 3.163612 0.945023 -0.406112
                    CHANNELS 3 Zrotation Yrotation Xrotation
                    JOINT LeftHandMiddle2
                    {
                      OFFSET 6.276789 3e-06 0.0
                      CHANNELS 3 Zrotation Yrotation Xrotation
                      JOINT LeftHandMiddle3
                      {
                        OFFSET 4.35652 -1e-06 4e-06
                        CHANNELS 3 Zrotation Yrotation Xrotation
                        JOINT LeftHandMiddle4
                        {
                          OFFSET 2.996877 0.0 8e-06
                          CHANNELS 3 Zrotation Yrotation Xrotation
                          JOINT LeftHandMiddleEnd
                          {
                            OFFSET 2.323256 3e-06 -4e-06
                            CHANNELS 3 Zrotation Yrotation Xrotation
                          }
                        }
                      }
                    }
                  }
                  JOINT LeftHandRing1
                  {
                    OFFSET 2.882606 -0.309162 0.107445
                    CHANNELS 3 Zrotation Yrotation Xrotation
                    JOINT LeftHandRing2
                    {
                      OFFSET 6.033198 0.0 4e-06
                      CHANNELS 3 Zrotation Yrotation Xrotation
                      JOINT LeftHandRing3
                      {
                        OFFSET 4.350578 3e-06 0.0
                        CHANNELS 3 Zrotation Yrotation Xrotation
                        JOINT LeftHandRing4
                        {
                          OFFSET 2.651321 2e-06 -7e-06
                          CHANNELS 3 Zrotation Yrotation Xrotation
                          JOINT LeftHandRingEnd
                          {
                            OFFSET 1.937663 1e-06 -4e-06
                            CHANNELS 3 Zrotation Yrotation Xrotation
                          }
                        }
                      }
                    }
                  }
                  JOINT LeftHandPinky1
                  {
                    OFFSET 2.865315 -1.525436 0.575687
                    CHANNELS 3 Zrotation Yrotation Xrotation
                    JOINT LeftHandPinky2
                    {
                      OFFSET 5.54936 1e-06 -8e-06
                      CHANNELS 3 Zrotation Yrotation Xrotation
                      JOINT LeftHandPinky3
                      {
                        OFFSET 3.070974 0.0 -4e-06
                        CHANNELS 3 Zrotation Yrotation Xrotation
                        JOINT LeftHandPinky4
                        {
                          OFFSET 1.549672 1e-06 0.0
                          CHANNELS 3 Zrotation Yrotation Xrotation
                          JOINT LeftHandPinkyEnd
                          {
                            OFFSET 1.952123 0.0 0.0
                            CHANNELS 3 Zrotation Yrotation Xrotation
                          }
                        }
                      }
                    }
                  }
                }
              }
            }
          }
          JOINT RightShoulder
          {
            OFFSET 23.161716 5.296122 -1.380114
            CHANNELS 3 Zrotation Yrotation Xrotation
            JOINT RightArm
            {
              OFFSET -16.027195 -2e-06 1.1e-05
              CHANNELS 3 Zrotation Yrotation Xrotation
              JOINT RightForeArm
              {
                OFFSET -28.736639 4e-06 2e-06
                CHANNELS 3 Zrotation Yrotation Xrotation
                JOINT RightHand
                {
                  OFFSET -27.133619 6e-06 0.0
                  CHANNELS 3 Zrotation Yrotation Xrotation
                  JOINT RightHandThumb1
                  {
                    OFFSET -2.274328 -3.351035 -0.83067
                    CHANNELS 3 Zrotation Yrotation Xrotation
                    JOINT RightHandThumb2
                    {
                      OFFSET -4.703594 -3e-06 2e-06
                      CHANNELS 3 Zrotation Yrotation Xrotation
                      JOINT RightHandThumb3
                      {
                        OFFSET -2.794935 -4e-06 -3e-06
                        CHANNELS 3 Zrotation Yrotation Xrotation
                        JOINT RightHandThumbEnd
                        {
                          OFFSET -3.183852 4e-06 1e-06
                          CHANNELS 3 Zrotation Yrotation Xrotation
                        }
                      }
                    }
                  }
                  JOINT RightHandIndex1
                  {
                    OFFSET -3.253496 -2.33755 -0.127667
                    CHANNELS 3 Zrotation Yrotation Xrotation
                    JOINT RightHandIndex2
                    {
                      OFFSET -6.344434 0.0 0.0
                      CHANNELS 3 Zrotation Yrotation Xrotation
                      JOINT RightHandIndex3
                      {
                        OFFSET -3.654871 0.0 -8e-06
                        CHANNELS 3 Zrotation Yrotation Xrotation
                        JOINT RightHandIndex4
                        {
                          OFFSET -2.327586 -1e-06 0.0
                          CHANNELS 3 Zrotation Yrotation Xrotation
                          JOINT RightHandIndexEnd
                          {
                            OFFSET -2.770001 3e-06 8e-06
                            CHANNELS 3 Zrotation Yrotation Xrotation
                          }
                        }
                      }
                    }
                  }
                  JOINT RightHandMiddle1
                  {
                    OFFSET -3.168223 -0.944764 0.411762
                    CHANNELS 3 Zrotation Yrotation Xrotation
                    JOINT RightHandMiddle2
                    {
                      OFFSET -6.266691 -1e-06 -4e-06
                      CHANNELS 3 Zrotation Yrotation Xrotation
                      JOINT RightHandMiddle3
                      {
                        OFFSET -4.348901 0.0 0.0
                        CHANNELS 3 Zrotation Yrotation Xrotation
                        JOINT RightHandMiddle4
                        {
                          OFFSET -3.00024 2e-06 -4e-06
                          CHANNELS 3 Zrotation Yrotation Xrotation
                          JOINT RightHandMiddleEnd
                          {
                            OFFSET -2.321477 -4e-06 -4e-06
                            CHANNELS 3 Zrotation Yrotation Xrotation
                          }
                        }
                      }
                    }
                  }
                  JOINT RightHandRing1
                  {
                    OFFSET -2.885654 0.293261 -0.119232
                    CHANNELS 3 Zrotation Yrotation Xrotation
                    JOINT RightHandRing2
                    {
                      OFFSET -6.032835 -1e-06 -4e-06
                      CHANNELS 3 Zrotation Yrotation Xrotation
                      JOINT RightHandRing3
                      {
                        OFFSET -4.33881 0.0 -4e-06
                        CHANNELS 3 Zrotation Yrotation Xrotation
                        JOINT RightHandRing4
                        {
                          OFFSET -2.654903 -4e-06 -4e-06
                          CHANNELS 3 Zrotation Yrotation Xrotation
                          JOINT RightHandRingEnd
                          {
                            OFFSET -1.935122 0.0 4e-06
                            CHANNELS 3 Zrotation Yrotation Xrotation
                          }
                        }
                      }
                    }
                  }
                  JOINT RightHandPinky1
                  {
                    OFFSET -2.866241 1.503904 -0.60527
                    CHANNELS 3 Zrotation Yrotation Xrotation
                    JOINT RightHandPinky2
                    {
                      OFFSET -5.553177 -2e-06 0.0
                      CHANNELS 3 Zrotation Yrotation Xrotation
                      JOINT RightHandPinky3
                      {
                        OFFSET -3.062664 -1e-06 -4e-06
                        CHANNELS 3 Zrotation Yrotation Xrotation
                        JOINT RightHandPinky4
                        {
                          OFFSET -1.546529 2e-06 4e-06
                          CHANNELS 3 Zrotation Yrotation Xrotation
                          JOINT RightHandPinkyEnd
                          {
                            OFFSET -1.952341 0.0 -4e-06
                            CHANNELS 3 Zrotation Yrotation Xrotation
                          }
                        }
                      }
                    }
                  }
                }
              }
            }
          }
        }
      }
    }
    JOINT LeftLeg
    {
      OFFSET -8.443107 2.567604 10.043214
      CHANNELS 3 Zrotation Yrotation Xrotation
      JOINT LeftShin
      {
        OFFSET 43.229198 1e-06 -1e-06
        CHANNELS 3 Zrotation Yrotation Xrotation
        JOINT LeftFoot
        {
          OFFSET 42.298611 1e-06 1e-06
          CHANNELS 3 Zrotation Yrotation Xrotation
          JOINT LeftToeBase
          {
            OFFSET 14.165858 1e-06 0.0
            CHANNELS 3 Zrotation Yrotation Xrotation
            JOINT LeftToeEnd
            {
              OFFSET 6.7141 -0.234461 0.0
              CHANNELS 3 Zrotation Yrotation Xrotation
            }
          }
        }
      }
    }
    JOINT RightLeg
    {
      OFFSET -8.303923 2.592729 -10.047278
      CHANNELS 3 Zrotation Yrotation Xrotation
      JOINT RightShin
      {
        OFFSET -43.369682 0.0 1e-06
        CHANNELS 3 Zrotation Yrotation Xrotation
        JOINT RightFoot
        {
          OFFSET -42.260784 4e-06 2e-06
          CHANNELS 3 Zrotation Yrotation Xrotation
          JOINT RightToeBase
          {
            OFFSET -14.222245 -2e-06 -1e-06
            CHANNELS 3 Zrotation Yrotation Xrotation
            JOINT RightToeEnd
            {
              OFFSET -6.660062 0.232574 -2e-06
              CHANNELS 3 Zrotation Yrotation Xrotation
            }
          }
        }
      }
    }
  }
}
MOTION
Frames: 4
Frame Time: 0.03333333333333333
0.0 0.0 0.0 0.0 -0.0 0.0 -19.245846 49.787094 277.126404 96.96524 -54.511471 81.263512 12.801456 -1.524144 0.073303 -5.981764 -0.653728 0.156856 19.881422 -3.096296 -2.45082 15.779423 3.903277 3.292892 -2.498401 0.142542 1.142078 -27.442503 5.576016 -1.632373 7e-06 -1e-06 0.0 -0.201067 0.126999 -0.032854 -0.220084 0.11888 -0.034538 -0.204146 0.141208 -0.049119 102.186676 -82.275993 -93.455444 57.175476 -17.531796 -19.196922 36.440178 0.894902 0.392764 33.183781 75.516281 43.742767 17.636633 -26.322737 52.411194 -19.466663 -14.395596 29.410385 -2e-06 -8.774819 -2e-06 16.835262 -18.904333 6.260697 -0.609776 -1.795654 -3.889329 -4.807086 -11.046812 -2.93785 4e-06 -20.976015 1e-06 -5.01997 -25.033554 -4.031881 6e-06 0.0 -1e-06 -10.634533 -5.686973 -3.565589 10.573271 -17.922949 -3.113899 1e-06 -13.82121 2e-06 -0.501781 -31.181505 -4.027012 -12.203989 -60.736755 8.496084 -13.982712 -7.150198 -2.875043 13.772728 -8.401495 -3.21824 0.347731 -34.211544 0.771658 -0.963029 -17.73337 2.621019 -0.0 0.0 -1e-06 -17.346416 -20.095217 -4.201783 21.757557 -1.638378 3.866429 1e-06 -6.338824 2e-06 -1.697589 -22.591751 -6.194007 -0.0 -5e-06 -1e-06 -145.607635 -73.996628 -31.96772 76.797935 -11.917334 -37.034637 15.574691 -0.153136 0.031982 27.731058 59.605335 23.570381 22.182117 -20.375898 49.933327 -16.701813 -16.743525 28.47653 -3e-06 -12.690601 -1e-06 15.543781 -17.969839 3.319856 -0.105919 -1.513856 -4.275882 -5.03904 -5.61287 -2.953557 4e-06 -11.020521 -2e-06 -6.111297 -15.89533 -3.840471 -0.0 2e-06 1e-06 -10.283369 -5.680286 -4.341838 11.028294 -11.302404 -2.372632 -1.384268 -14.238583 -6.320122 -0.625439 -26.924187 -3.8276 -3.819419 -48.835506 -4.573806 -13.708525 -7.363473 -3.720941 18.141146 -14.052739 -3.242674 6e-06 -18.787273 -2e-06 -0.429713 -8.456045 2.555505 -1e-06 1e-06 0.0 -15.923532 -20.094482 -5.473587 30.41921 -7.190827 1.735927 3e-06 -8.162925 1e-06 -1.861901 -22.861467 -6.167942 -2e-06 -2e-06 -2e-06 119.773705 1.042479 -4.44909 111.123207 1.095173 0.476492 -59.172295 14.485283 2.316189 -11.438154 1.215228 1.772679 -0.999997 1e-06 -0.0 -40.082489 -9.966943 2.496588 95.137894 -2.499789 0.249924 -78.290985 -3.9535 -1.420184 -8.523413 0.61757 1.757946 -1.000002 -0.0 -0.0 
0.0 0.0 0.0 0.0 -0.0 0.0 -19.151247 50.26033 278.341034 96.51683 -54.444687 80.796387 13.129467 -1.229712 0.152347 -5.861759 -0.555744 0.087122 19.672457 -2.620146 -2.058505 15.463005 3.176667 3.230285 -2.454122 0.182006 1.560353 -27.346949 5.586701 -1.281903 8e-06 -1e-06 0.0 -0.204921 0.099548 -0.017574 -0.131958 0.07656 0.0132 -0.130632 0.127383 -0.062627 93.116417 -82.48893 -84.767807 54.981384 -12.734346 -22.738676 40.864655 1.671651 0.489896 25.722841 74.362068 38.879738 17.636633 -26.322729 52.411186 -19.466661 -14.395598 29.410385 -2e-06 -8.774822 -1e-06 16.734091 -18.805975 6.613234 -0.609776 -1.795654 -3.889328 -4.80709 -11.046813 -2.93785 5e-06 -20.976015 1e-06 -5.019969 -25.033556 -4.031882 6e-06 0.0 2e-06 -10.634533 -5.68697 -3.565588 10.573277 -17.922953 -3.1139 4e-06 -13.821206 0.0 -0.501776 -31.181505 -4.027016 -12.116299 -60.78632 8.416828 -13.982714 -7.150198 -2.875042 13.772731 -8.401493 -3.21824 0.347735 -34.211555 0.771653 -0.963028 -17.73337 2.621019 0.0 0.0 1e-06 -17.346422 -20.095221 -4.20178 21.757563 -1.638378 3.866428 1e-06 -6.338825 1e-06 -1.697589 -22.591745 -6.194007 -1e-06 -6e-06 -1e-06 -142.929733 -73.776482 -34.441631 77.159103 -12.116074 -35.736027 15.452373 0.175526 0.042282 28.930099 60.187382 24.767517 22.182119 -20.375895 49.933311 -16.701815 -16.743528 28.476532 -4e-06 -12.690601 -0.0 15.469718 -17.986507 3.285339 -0.10592 -1.513855 -4.275883 -5.039041 -5.612872 -2.953556 4e-06 -11.020524 -2e-06 -6.111299 -15.895332 -3.840469 -0.0 2e-06 -0.0 -10.283373 -5.680288 -4.341839 11.028295 -11.302406 -2.372631 -1.384269 -14.23858 -6.320121 -0.625439 -26.924187 -3.827602 -3.841451 -48.825581 -4.529007 -13.708526 -7.363475 -3.720937 18.141153 -14.052737 -3.242676 5e-06 -18.787275 -1e-06 -0.429711 -8.456043 2.555503 -0.0 0.0 -0.0 -15.923538 -20.094482 -5.473584 30.41921 -7.190826 1.735924 2e-06 -8.162924 -1e-06 -1.8619 -22.861469 -6.167942 -1e-06 -2e-06 -1e-06 121.475258 0.558481 -4.542284 109.262939 1.060281 0.412947 -59.451046 14.877052 1.859023 -11.931658 1.217332 1.787158 -0.999999 0.0 -0.0 -44.658466 -9.285116 3.588441 100.307777 -2.037889 0.140065 -80.765419 -4.71032 -1.781222 -8.737265 0.604008 1.80643 -1.000001 -0.0 0.0 
0.0 0.0 0.0 0.0 -0.0 0.0 -19.122072 50.604485 279.379456 95.813866 -54.192863 80.762672 13.542949 -0.953188 0.230489 -5.702178 -0.529575 -0.027766 19.564615 -2.008295 -1.809235 15.218654 2.673212 3.117092 -2.428117 0.169789 2.022965 -27.207445 5.543232 -0.784656 7e-06 -1e-06 0.0 -0.21077 0.067494 0.0002 -0.095246 0.03072 0.040168 -0.109422 0.108358 -0.051895 80.571686 -81.997169 -72.759331 52.886021 -7.04635 -26.10021 42.717903 2.449423 0.594635 14.69633 71.830467 29.81217 17.636623 -26.322723 52.411182 -19.466663 -14.3956 29.410389 -2e-06 -8.774818 -0.0 16.394365 -18.69068 6.955003 -0.609776 -1.795653 -3.889328 -4.807087 -11.046809 -2.93785 5e-06 -20.976015 1e-06 -5.019969 -25.033556 -4.031878 6e-06 1e-06 1e-06 -10.634533 -5.686967 -3.565587 10.573275 -17.922947 -3.113901 4e-06 -13.821206 1e-06 -0.501774 -31.181494 -4.027015 -11.942411 -60.716942 8.22096 -13.982712 -7.150196 -2.87504 13.772727 -8.401489 -3.218244 0.347736 -34.211536 0.771654 -0.963028 -17.73336 2.621021 -0.0 -2e-06 -0.0 -17.346413 -20.095211 -4.20178 21.757555 -1.638376 3.866426 2e-06 -6.338822 1e-06 -1.697588 -22.591736 -6.194006 -1e-06 -6e-06 -2e-06 -140.764908 -73.664436 -36.553535 77.611572 -12.213952 -34.523853 15.17233 0.298313 0.045947 29.405157 60.517811 25.25638 22.18211 -20.375889 49.933304 -16.701811 -16.743528 28.476524 -2e-06 -12.690601 -1e-06 15.482403 -18.038937 3.179327 -0.105918 -1.513856 -4.27588 -5.039041 -5.61287 -2.953555 4e-06 -11.020521 -2e-06 -6.111297 -15.895332 -3.840468 -0.0 2e-06 -1e-06 -10.283369 -5.680289 -4.341837 11.028295 -11.302403 -2.372632 -1.384269 -14.238579 -6.320119 -0.62544 -26.924191 -3.827598 -3.883976 -48.76762 -4.540392 -13.708524 -7.363475 -3.720938 18.141148 -14.052738 -3.242674 5e-06 -18.78727 -2e-06 -0.429712 -8.456042 2.555502 -0.0 1e-06 1e-06 -15.923536 -20.094482 -5.473581 30.419214 -7.190825 1.735929 1e-06 -8.162925 0.0 -1.861902 -22.861473 -6.167942 -1e-06 -2e-06 -2e-06 123.142059 0.038881 -4.517997 107.644135 0.966569 0.354016 -59.148148 15.475715 1.653493 -12.2029 1.207412 1.797454 -0.999997 0.0 0.0 -49.682407 -8.438427 4.532666 106.051369 -1.596544 0.049544 -83.441933 -4.44305 -1.940773 -9.21533 0.624815 1.808936 -1.000002 -0.0 0.0 
0.0 0.0 0.0 0.0 -0.0 0.0 -19.160107 50.79266 280.268005 95.03582 -53.770588 81.238304 14.020458 -0.728186 0.253836 -5.499576 -0.529332 -0.217758 19.52821 -1.318143 -1.838655 14.951556 2.477275 2.940125 -2.414392 0.149234 2.496991 -26.958778 5.461625 -0.134925 7e-06 -1e-06 0.0 -0.213281 0.032628 0.01915 -0.109027 -0.009457 0.042967 -0.133344 0.07767 -0.015242 67.823105 -80.573792 -60.657223 50.940662 -0.95113 -28.797232 41.259029 2.929953 0.572814 3.841282 67.576645 19.627243 17.636631 -26.322729 52.411205 -19.466663 -14.395598 29.410389 0.0 -8.774822 -2e-06 16.064634 -18.569633 7.115144 -0.609776 -1.795654 -3.889329 -4.807088 -11.046808 -2.93785 5e-06 -20.976019 -1e-06 -5.01997 -25.033558 -4.031883 6e-06 0.0 2e-06 -10.634535 -5.686971 -3.565588 10.573276 -17.922947 -3.1139 2e-06 -13.821211 2e-06 -0.501777 -31.181505 -4.027019 -11.753832 -60.508686 7.956429 -13.982715 -7.150199 -2.875042 13.772731 -8.401491 -3.218242 0.347735 -34.211555 0.771653 -0.963027 -17.73337 2.621019 -0.0 -1e-06 0.0 -17.346422 -20.095217 -4.201782 21.757561 -1.638377 3.866429 1e-06 -6.338823 0.0 -1.697589 -22.591745 -6.194007 0.0 -4e-06 -2e-06 -139.110886 -73.718147 -38.275932 78.107094 -12.237957 -33.375629 14.864401 0.23607 0.035509 29.330959 60.755032 25.224375 22.182106 -20.375891 49.933308 -16.701811 -16.743528 28.476524 -4e-06 -12.690598 1e-06 15.539939 -18.126333 3.06518 -0.105919 -1.513854 -4.275883 -5.03904 -5.61287 -2.953554 4e-06 -11.02052 -1e-06 -6.111295 -15.895329 -3.840469 -0.0 1e-06 -0.0 -10.283367 -5.680285 -4.341837 11.028292 -11.302403 -2.372633 -1.384268 -14.238579 -6.320119 -0.625439 -26.924185 -3.827598 -3.975609 -48.722809 -4.514637 -13.708521 -7.363475 -3.720936 18.141146 -14.052736 -3.242674 6e-06 -18.78727 -1e-06 -0.429711 -8.456041 2.555502 -0.0 1e-06 1e-06 -15.923532 -20.094479 -5.473581 30.419205 -7.190824 1.735924 2e-06 -8.162925 -0.0 -1.861904 -22.861464 -6.167937 0.0 -3e-06 -1e-06 124.776314 -0.267801 -4.32779 106.293205 0.830446 0.305926 -58.580505 16.121946 1.560677 -12.063869 1.184304 1.793669 -1.0 1e-06 0.0 -55.046474 -7.707517 5.354563 112.244949 -1.172035 0.015442 -86.092598 -3.332809 -1.930839 -9.681676 0.651666 1.780254 -1.000002 -0.0 -0.0 
